# xmcd CD database file
#
# Track frame offsets:
#	150
#	14771
#	30488
#	47565
#	61303
#	76084
#	91349
#	105381
#	119984
#	135872
#	150555
#	166212
#	180100
#	195820
#	215161
#
# Disc length: 3056 seconds
#
# Revision: 3
# Processed by: cddbd v1.5.2PL0 Copyright (c) Steve Scherf et al.
# Submitted via: CD2WAV32(JP) R3.22
#
DISCID=b30bee0f
DTITLE=Gebroeders Ko - Feeste bouwen
DYEAR=2009
DGENRE=Pop
TTITLE0=Geef mij de sleutel van jouw voordeur
TTITLE1=Vuvuzela
TTITLE2=Wil jij wat van mij drinken?
TTITLE3=Nie prate en nie zinge nie
TTITLE4=Ik heb een toeter op m'n waterscooter
TTITLE5=Schatje mag ik je foto?
TTITLE6=Duiken in de zee
TTITLE7=De regenworm
TTITLE8=Tringeling
TTITLE9=Boten Anna
TTITLE10=Wij doen het licht wel uit
TTITLE11=Feestje bouwen
TTITLE12=Laat je gaan (We gaan feesten op 't plein)
TTITLE13=Wienerschnitzel (We will rock you)
TTITLE14=Schatje mag ik je foto (Remix)
EXTD=
EXTT0=
EXTT1=
EXTT2=
EXTT3=
EXTT4=
EXTT5=
EXTT6=
EXTT7=
EXTT8=
EXTT9=
EXTT10=
EXTT11=
EXTT12=
EXTT13=
EXTT14=
PLAYORDER=
